<svg width="14" height="16" viewBox="0 0 14 16" fill="none" xmlns="http://www.w3.org/2000/svg">
    <g clip-path="url(#clip0_442_1221)">
        <path fill-rule="evenodd" clip-rule="evenodd"
            d="M10.9043 6.6713C11.5803 7.48903 11.9877 8.52788 11.9877 9.65435C11.9877 10.7808 11.5717 11.8489 10.874 12.6749L10.8133 12.7459L10.796 12.6541C10.783 12.579 10.7657 12.4997 10.7483 12.4205C10.4017 10.9477 9.26633 9.68355 7.39433 8.65722C6.13333 7.96882 5.40967 7.13857 5.219 6.19568C5.09767 5.58655 5.18867 4.97325 5.362 4.44757C5.53967 3.92188 5.79967 3.48381 6.02067 3.22097L6.74867 2.36569C6.87433 2.2155 7.117 2.2155 7.24267 2.36569L10.9043 6.6713ZM12.0527 5.81602L7.182 0.0835532C7.091 -0.0249214 6.91333 -0.0249214 6.82233 0.0835532L1.94733 5.81602L1.93 5.83688C1.03733 6.90911 0.5 8.26921 0.5 9.75031C0.5 13.2006 3.412 16.0001 7 16.0001C10.588 16.0001 13.5 13.2006 13.5 9.75031C13.5 8.26921 12.9627 6.90911 12.0657 5.83688L12.0527 5.81602ZM3.113 6.65461L3.54633 6.14144L3.55933 6.2374C3.568 6.3125 3.581 6.38759 3.59833 6.46269C3.88 7.88538 4.88967 9.07443 6.571 9.99229C8.03567 10.7933 8.885 11.7154 9.132 12.7292C9.236 13.1506 9.25333 13.5678 9.21 13.9307L9.20567 13.9516L9.184 13.96C8.52533 14.2687 7.78 14.4439 6.99567 14.4439C4.244 14.4439 2.01233 12.2995 2.01233 9.65435C2.01233 8.51954 2.424 7.47234 3.113 6.65461Z"
            fill="#4DA2FF" />
    </g>
    <defs>
        <clipPath id="clip0_442_1221">
            <rect width="13" height="16" fill="white" transform="translate(0.5)" />
        </clipPath>
    </defs>
</svg>